<svg width="40" height="40" viewBox="0 0 40 40" fill="none" xmlns="http://www.w3.org/2000/svg">
<path d="M20.0031 16.4062C18.0156 16.4062 16.4125 18.0094 16.4125 19.9969C16.4125 21.9844 18.0156 23.5875 20.0031 23.5875C21.9906 23.5875 23.5938 21.9844 23.5938 19.9969C23.5938 18.0094 21.9906 16.4062 20.0031 16.4062ZM20.0031 22.3312C18.7188 22.3312 17.6688 21.2844 17.6688 19.9969C17.6688 18.7094 18.7156 17.6625 20.0031 17.6625C21.2906 17.6625 22.3375 18.7094 22.3375 19.9969C22.3375 21.2844 21.2875 22.3312 20.0031 22.3312ZM24.5781 16.2594C24.5781 16.725 24.2031 17.0969 23.7406 17.0969C23.275 17.0969 22.9031 16.7219 22.9031 16.2594C22.9031 15.7969 23.2781 15.4219 23.7406 15.4219C24.2031 15.4219 24.5781 15.7969 24.5781 16.2594ZM26.9562 17.1094C26.9031 15.9875 26.6469 14.9937 25.825 14.175C25.0062 13.3562 24.0125 13.1 22.8906 13.0437C21.7344 12.9781 18.2688 12.9781 17.1125 13.0437C15.9938 13.0969 15 13.3531 14.1781 14.1719C13.3563 14.9906 13.1031 15.9844 13.0469 17.1062C12.9813 18.2625 12.9813 21.7281 13.0469 22.8844C13.1 24.0062 13.3563 25 14.1781 25.8187C15 26.6375 15.9906 26.8937 17.1125 26.95C18.2688 27.0156 21.7344 27.0156 22.8906 26.95C24.0125 26.8969 25.0062 26.6406 25.825 25.8187C26.6437 25 26.9 24.0062 26.9562 22.8844C27.0219 21.7281 27.0219 18.2656 26.9562 17.1094ZM25.4625 24.125C25.2187 24.7375 24.7469 25.2094 24.1313 25.4562C23.2094 25.8219 21.0219 25.7375 20.0031 25.7375C18.9844 25.7375 16.7938 25.8187 15.875 25.4562C15.2625 25.2125 14.7906 24.7406 14.5438 24.125C14.1781 23.2031 14.2625 21.0156 14.2625 19.9969C14.2625 18.9781 14.1813 16.7875 14.5438 15.8687C14.7875 15.2562 15.2594 14.7844 15.875 14.5375C16.7969 14.1719 18.9844 14.2562 20.0031 14.2562C21.0219 14.2562 23.2125 14.175 24.1313 14.5375C24.7438 14.7812 25.2156 15.2531 25.4625 15.8687C25.8281 16.7906 25.7437 18.9781 25.7437 19.9969C25.7437 21.0156 25.8281 23.2062 25.4625 24.125Z" fill="white"/>
<rect x="0.5" y="0.5" width="39" height="39" rx="19.5" stroke="white"/>
</svg>
