<svg width="40" height="40" viewBox="0 0 40 40" fill="none" xmlns="http://www.w3.org/2000/svg">
<path d="M26.3553 17.2386C26.3655 17.3807 26.3655 17.5228 26.3655 17.665C26.3655 22 23.066 26.9949 17.0355 26.9949C15.1777 26.9949 13.4518 26.4568 12 25.5228C12.264 25.5533 12.5178 25.5634 12.7919 25.5634C14.3248 25.5634 15.736 25.0457 16.8629 24.1624C15.4213 24.132 14.2132 23.1878 13.7969 21.8883C14 21.9187 14.203 21.9391 14.4162 21.9391C14.7107 21.9391 15.0051 21.8984 15.2792 21.8274C13.7767 21.5228 12.6497 20.203 12.6497 18.6091V18.5685C13.0863 18.8122 13.5939 18.9645 14.1319 18.9847C13.2487 18.3959 12.67 17.3908 12.67 16.2538C12.67 15.6447 12.8324 15.0863 13.1167 14.599C14.7309 16.5888 17.1573 17.8883 19.8781 18.0304C19.8274 17.7868 19.7969 17.533 19.7969 17.2792C19.7969 15.4721 21.2588 14 23.0761 14C24.0203 14 24.873 14.3959 25.472 15.0355C26.2131 14.8934 26.9238 14.6193 27.5533 14.2437C27.3096 15.0051 26.7918 15.6447 26.1116 16.0508C26.7715 15.9797 27.4111 15.7969 27.9999 15.5432C27.5533 16.1929 26.9949 16.7715 26.3553 17.2386Z" fill="white"/>
<rect x="0.5" y="0.5" width="39" height="39" rx="19.5" stroke="white"/>
</svg>
