<svg width="241" height="54" viewBox="0 0 241 54" fill="none" xmlns="http://www.w3.org/2000/svg">
<path d="M22.92 48.39L51.54 48.14L30.98 12.95L14.19 42.88L9.67 42.92L28.98 9.35L25.75 3.82L0 48.59L17.44 48.44L31.08 24.13L41.89 42.63L25.24 42.78L22.92 48.39ZM67.68 53.98L36.37 0.21L36.74 0L68.05 53.76L67.68 53.98ZM70.48 20.8V20.75C70.48 15.53 74.58 11.29 80.04 11.29C85.5 11.29 89.54 15.47 89.54 20.7V20.75C89.54 25.97 85.44 30.21 79.99 30.21C74.53 30.21 70.48 26.02 70.48 20.8ZM84.54 20.8V20.75C84.54 18.12 82.69 15.84 79.99 15.84C77.31 15.84 75.51 18.07 75.51 20.7V20.75C75.51 23.37 77.36 25.66 80.04 25.66C82.74 25.66 84.54 23.43 84.54 20.8ZM94.62 11.65H99.2L106.48 21.27V11.65H111.33V29.84H107.03L99.48 19.87V29.84H94.62V11.65ZM121.32 16.07H116.01V11.65H131.53V16.07H126.22V29.84H121.32V16.07ZM136.31 11.65H141.23V29.84H136.31V11.65ZM146.39 20.8V20.75C146.39 15.45 150.36 11.29 155.72 11.29C159.33 11.29 161.65 12.85 163.22 15.08L159.53 18.02C158.52 16.72 157.36 15.89 155.67 15.89C153.19 15.89 151.45 18.05 151.45 20.7V20.75C151.45 23.48 153.19 25.61 155.67 25.61C157.51 25.61 158.6 24.73 159.66 23.4L163.35 26.1C161.68 28.47 159.43 30.21 155.51 30.21C150.46 30.21 146.39 26.23 146.39 20.8ZM167.98 11.65H182.21V15.94H172.83V18.7H181.32V22.67H172.83V25.56H182.33V29.84H167.98V11.65ZM187.37 11.65H192.27V25.43H200.83V29.84H187.37V11.65ZM205.46 11.65H210.37V25.43H218.93V29.84H205.46V11.65ZM221.94 20.8V20.75C221.94 15.53 226.04 11.29 231.5 11.29C236.96 11.29 241 15.47 241 20.7V20.75C241 25.97 236.91 30.21 231.45 30.21C225.99 30.21 221.94 26.02 221.94 20.8ZM236 20.8V20.75C236 18.12 234.15 15.84 231.45 15.84C228.77 15.84 226.97 18.07 226.97 20.7V20.75C226.97 23.37 228.82 25.66 231.5 25.66C234.2 25.66 236 23.43 236 20.8ZM51.42 25.47V19.45L55.92 26.52H56.02L60.55 19.4V29.84H65.42V11.65H60.24L56.02 18.7L51.8 11.65H46.62V17.23L51.42 25.47ZM71.49 39.7H72.17V45.76H71.49V39.7ZM77.37 39.7H78.01L81.79 44.55V39.7H82.45V45.76H81.91L78.03 40.79V45.76H77.37V39.7ZM89.18 40.33H87.16V39.7H91.88V40.33H89.87V45.76H89.18V40.33ZM96.59 39.7H100.94V40.32H97.27V42.39H100.55V43.01H97.27V45.13H100.98V45.76H96.59V39.7ZM105.78 39.7H108.37C109.11 39.7 109.7 39.92 110.08 40.3C110.37 40.6 110.54 41.02 110.54 41.5V41.51C110.54 42.52 109.85 43.11 108.91 43.28L110.76 45.76H109.92L108.18 43.4H106.46V45.76H105.78V39.7ZM108.31 42.79C109.21 42.79 109.85 42.32 109.85 41.54V41.52C109.85 40.78 109.29 40.33 108.32 40.33H106.46V42.79H108.31ZM115.43 39.7H116.07L119.85 44.55V39.7H120.51V45.76H119.97L116.09 40.79V45.76H115.43V39.7ZM127.88 39.65H128.51L131.25 45.76H130.52L129.82 44.16H126.55L125.83 45.76H125.14L127.88 39.65ZM129.55 43.54L128.19 40.45L126.81 43.54H129.55ZM136.69 40.33H134.67V39.7H139.4V40.33H137.38V45.76H136.69V40.33ZM144.17 39.7H144.84V45.76H144.17V39.7ZM149.78 42.74V42.73C149.78 41.06 151.02 39.59 152.85 39.59C154.68 39.59 155.91 41.04 155.91 42.71V42.73C155.91 44.4 154.66 45.86 152.83 45.86C151 45.86 149.78 44.42 149.78 42.74ZM155.2 42.74V42.73C155.2 41.35 154.21 40.22 152.83 40.22C151.46 40.22 150.48 41.33 150.48 42.71V42.73C150.48 44.1 151.48 45.23 152.85 45.23C154.22 45.23 155.2 44.12 155.2 42.74ZM160.78 39.7H161.41L165.2 44.55V39.7H165.86V45.76H165.32L161.44 40.79V45.76H160.78V39.7ZM173.23 39.65H173.86L176.6 45.76H175.87L175.17 44.16H171.9L171.18 45.76H170.49L173.23 39.65ZM174.9 43.54L173.53 40.45L172.16 43.54H174.9ZM181.22 39.7H181.9V45.12H185.29V45.76H181.22V39.7ZM195.72 42.74V42.73C195.72 41.06 196.94 39.59 198.74 39.59C199.75 39.59 200.38 39.89 200.98 40.4L200.54 40.92C200.08 40.51 199.56 40.22 198.71 40.22C197.38 40.22 196.43 41.36 196.43 42.71V42.73C196.43 44.17 197.35 45.25 198.81 45.25C199.49 45.25 200.13 44.98 200.54 44.64V43.13H198.71V42.52H201.19V44.93C200.64 45.44 199.79 45.86 198.78 45.86C196.89 45.86 195.72 44.48 195.72 42.74ZM206.16 39.7H208.75C209.48 39.7 210.08 39.92 210.45 40.3C210.75 40.6 210.92 41.02 210.92 41.5V41.51C210.92 42.52 210.23 43.11 209.29 43.28L211.13 45.76H210.3L208.56 43.4H206.84V45.76H206.16V39.7ZM208.69 42.79C209.59 42.79 210.23 42.32 210.23 41.54V41.52C210.23 40.78 209.66 40.33 208.69 40.33H206.84V42.79H208.69ZM215.54 42.74V42.73C215.54 41.06 216.79 39.59 218.62 39.59C220.44 39.59 221.67 41.04 221.67 42.71V42.73C221.67 44.4 220.43 45.86 218.6 45.86C216.77 45.86 215.54 44.42 215.54 42.74ZM220.97 42.74V42.73C220.97 41.35 219.97 40.22 218.6 40.22C217.22 40.22 216.25 41.33 216.25 42.71V42.73C216.25 44.1 217.24 45.23 218.62 45.23C219.99 45.23 220.97 44.12 220.97 42.74ZM226.45 43.22V39.7H227.13V43.18C227.13 44.48 227.82 45.22 228.97 45.22C230.07 45.22 230.78 44.54 230.78 43.22V39.7H231.46V43.17C231.46 44.93 230.45 45.85 228.95 45.85C227.46 45.85 226.45 44.93 226.45 43.22ZM236.5 39.7H238.75C240.11 39.7 241 40.42 241 41.62V41.64C241 42.94 239.92 43.62 238.64 43.62H237.18V45.76H236.5V39.7ZM238.66 42.99C239.66 42.99 240.31 42.46 240.31 41.66V41.64C240.31 40.78 239.67 40.33 238.7 40.33H237.18V42.99H238.66Z" fill="white"/>
</svg>
