<svg width="14" height="16" viewBox="0 0 14 16" fill="none" xmlns="http://www.w3.org/2000/svg">
<g clip-path="url(#clip0)">
<path d="M6.36275 15.6772C1.83958 9.09472 1 8.41916 1 6C1 2.68628 3.67599 0 6.97701 0C10.278 0 12.954 2.68628 12.954 6C12.954 8.41916 12.1144 9.09472 7.59127 15.6772C7.29445 16.1076 6.65955 16.1076 6.36275 15.6772ZM6.97701 8.5C8.35244 8.5 9.46743 7.38072 9.46743 6C9.46743 4.61928 8.35244 3.5 6.97701 3.5C5.60158 3.5 4.48659 4.61928 4.48659 6C4.48659 7.38072 5.60158 8.5 6.97701 8.5Z" fill="#2C4058"/>
</g>
<defs>
<clipPath id="clip0">
<rect width="14" height="16" fill="white"/>
</clipPath>
</defs>
</svg>
